<?xml version="1.0" encoding="UTF-8"?>
<svg id="Layer_2" data-name="Layer 2" xmlns="http://www.w3.org/2000/svg" xmlns:xlink="http://www.w3.org/1999/xlink" viewBox="0 0 226.77 237.57">
  <defs>
    <style>
      .cls-1 {
        fill: #161624;
      }

      .cls-2 {
        fill: none;
      }

      .cls-3 {
        fill: #FAF4E8;
      }

      .cls-4 {
        clip-path: url(#clippath-1);
      }

      .cls-5 {
        fill: #ef4056;
      }

      .cls-6 {
        clip-path: url(#clippath);
      }
    </style>
    <clipPath id="clippath">
      <ellipse class="cls-2" cx="82.6" cy="71.6" rx="18.23" ry="20.9" transform="translate(-13.05 18.67) rotate(-11.96)"/>
    </clipPath>
    <clipPath id="clippath-1">
      <ellipse class="cls-2" cx="150.74" cy="62.03" rx="13.1" ry="19.09" transform="translate(-8.79 28.58) rotate(-10.53)"/>
    </clipPath>
  </defs>
  <g id="Layer_1-2" data-name="Layer 1">
    <g>
      <path class="cls-3" d="M173.15,187.08c-.92-5.75-1.88-11.71-6.25-14.46-2.54-1.6-5.73-1.8-9.73-.6-.61.18-1.24.4-1.89.64-.83-5.81-1.53-10.09-1.53-10.09l-1.42-62.02-11.52-53.97c.72-1.44,1.07-2.61.93-3.41-1.14-6.41-8.08-16.23-25.99-27.66C97.84,4.07,80.24-2.15,64.27.68s-13.5,7.7-9.68,8.78c3.81,1.08,8.99,3.7,8.99,3.7,0,0-10.47-1.88-26.55,1.88-16.08,3.75-26.18,10.64-26.18,13.52s2.61,3.55,12.57.31c9.96-3.24,15.49-3.45,15.49-3.45,0,0-17.65,5.72-24.54,15.68-6.89,9.96,12.14,1.31,12.14,1.31C18.54,47.08-1.51,66.18.09,80.4c1.6,14.23,17.39-1.72,17.39-1.72-6.48,25.21-5.18,43.04-5.18,43.04,0,13.88.89,25.36,2.6,34.88,0,0,0,0,0,0,0,.04.01.07.02.11.58,3.21,1.25,6.19,2.01,8.97,3.16,12.63,7.75,24.63,14.93,31.74,11.85,11.75,19.57,16.44,37.32,21.79.55,3.26,1.02,3.93,1.67,6.47,3.09,12.52,10.7,15,21.38,8.13,2.49-1.52,5-3.18,7.43-4.73,5.04-3.3,9.69-7.18,13.95-11.43.37-.36.74-.74,1.12-1.14,2.68,1.6,6.39,3,10.44,3,3.47,0,7.19-1.03,10.74-3.83,4.19,2.11,13.54,6.88,20.3,10.77,2.93,1.68,5.57,2.52,7.9,2.52,1.08,0,2.1-.18,3.05-.55,3.04-1.18,4.09-3.79,4.28-4.33,4.86-13.92,2.55-31.86,1.72-37.03Z"/>
      <path class="cls-3" d="M93.49,135.47s29.52,19.51,58.15,26.28c31.06,7.35,75.13,18.55,75.13,18.55,0,0-4.54-10.28-12-21.14-7.81-11.37-20.09-25.64-32.75-39.91-13.9-15.66-28.51-31.25-44.03-41.35,0,0-19.29-14.9-26.28,0s-18.21,57.57-18.21,57.57Z"/>
      <path class="cls-1" d="M96.63,127.94s-3.23,4.32,2.85,6.85c6.08,2.53,38.74,15.4,62.12,22.04,23.38,6.63,38.95,10.76,38.95,10.76,0,0-40.42-17.44-53.54-23.24-13.12-5.8-43.01-13.53-43.09-22.04,0,0,29.96,9.59,60.17,22.64,30.21,13.05,49.69,24.16,49.69,24.16,0,0-15.08-23.53-34.32-42.01-19.24-18.48-53.85-49.25-53.85-49.25,0,0-6.03-6.86-9.12,1.13-3.09,7.99-19.87,48.96-19.87,48.96Z"/>
      <path class="cls-3" d="M138.54,102.67c-.52.62-1.76.51-3.39.05-1.63-.47-3.7-1.27-6-2.38-2.3-1.1-4.37-2.38-5.73-3.62-1.36-1.23-1.99-2.39-1.61-3.1.38-.71,1.64-.86,3.39-.61,1.75.26,4.04.92,6.48,2.1,1.22.59,2.36,1.27,3.34,1.98.98.72,1.81,1.47,2.42,2.21,1.24,1.47,1.61,2.76,1.1,3.36Z"/>
      <ellipse class="cls-5" cx="150.73" cy="61.97" rx="20.33" ry="25.4" transform="translate(-8.78 28.58) rotate(-10.53)"/>
      <ellipse class="cls-3" cx="150.73" cy="61.97" rx="14.53" ry="20.51" transform="translate(-8.78 28.58) rotate(-10.53)"/>
      <ellipse class="cls-5" cx="82.23" cy="71.83" rx="24.86" ry="28.19" transform="translate(-13.1 18.6) rotate(-11.96)"/>
      <ellipse class="cls-3" cx="82.6" cy="71.6" rx="19.93" ry="22.86" transform="translate(-13.05 18.67) rotate(-11.96)"/>
      <path class="cls-5" d="M106.7,69.27l-4.57-3.57c4.98-6.38,10.75-9.99,17.14-10.74,9.38-1.1,16.52,4.51,16.81,4.75l-3.62,4.54c-.06-.04-5.63-4.36-12.59-3.52-4.77.58-9.2,3.45-13.18,8.54Z"/>
      <g class="cls-6">
        <g>
          <polygon class="cls-1" points="65.43 85.29 58.6 77.35 83.97 46.95 91.71 51.5 65.43 85.29"/>
          <polygon class="cls-1" points="79.99 96.67 70.99 92.14 98.26 55.15 103.12 63.67 79.99 96.67"/>
        </g>
      </g>
      <g class="cls-4">
        <g>
          <polygon class="cls-1" points="137.33 73.56 133.47 65.04 154.41 39.89 161.23 44.01 137.33 73.56"/>
          <polygon class="cls-1" points="148.83 84.72 141.32 80.4 164.66 47.61 168.63 54.34 148.83 84.72"/>
        </g>
      </g>
      <g>
        <path class="cls-5" d="M68.19,211.12c-7.04-1.62-20.86-5.8-30.24-15.11-7.83-7.76-11.54-16.37-14.32-30.2,0,0,3.93,2.93,9.87,6.69,0,0,.01.01.03.02,9.09,5.76,22.87,13.46,34.53,15.61-.15.98-.28,1.99-.38,3.02-.61,6.28-.28,13.38.52,19.96Z"/>
        <path class="cls-5" d="M112.82,204.7c-.03.49-.08.99-.12,1.47-.14,1.22-.51,3.27-.61,4.58-.36.32-.79.69-1.08.94-4.78,4.11-9.83,7.98-15.21,11.24-.93.56-2.8,1.66-3.73,2.24-2.48,1.52-4.91,3.02-7.13,4.03-.85.39-1.96.78-2.82.83-1.46.09-2.09-1.24-2.83-2.71-3.94-10.61-6.12-29.65-4.08-40.74.29-1.43.62-2.71,1.19-3.89.27-.62.66-1.1,1.23-1.46,4.62-2.5,13.43.64,18.23,2.41,5.09,1.99,10.05,4.49,14.87,7.23.2.33.42.74.6,1.15.96,2.31,1.41,4.75,1.56,7.23-1.82-.47-3.79-.73-5.82-.8-4.49-.14-8.43.56-11.18,1.43-1.38.41-2.46.92-3.18,1.37-.72.46-1.09.9-1.02,1.3.06.4.55.71,1.36.94.81.24,1.95.35,3.33.47,2.76.18,6.49.17,10.48.3,1.99.07,3.85.19,5.46.38l.29.04.15.02c.05,0,.04,0,.06,0Z"/>
        <path class="cls-5" d="M132.51,209.7c-5.89,5.38-12.16,2.38-14.67.76.05-.36.1-.72.15-1.07.07-.71.18-2.02.25-2.74.27-4.56.09-9.23-1.24-13.62,2.42-1.48,7.84-4.05,13.76-1.63,3.2,4.67,2.54,13.6,1.76,18.3Z"/>
        <path class="cls-5" d="M165.95,222.19l-.02.07s-.27.52-.88.76c-.57.22-2.3.51-5.95-1.6-7.02-4.03-16.73-8.98-20.84-11.04.34-2.15.76-5.6.67-9.34.14-.01.29-.03.42-.04.42-.05.85-.1,1.28-.15,3.46-.4,6.57-.84,8.84-1.28,2.26-.45,3.7-.92,3.75-1.57.04-.63-1.39-1.33-3.79-1.72-2.4-.4-5.72-.46-9.33-.04-.45.05-.89.11-1.33.17-.07,0-.15.02-.22.03-.35-2.31-.98-4.58-1.99-6.6,4.61-3.16,15.35-10.21,22.27-12.27,2.28-.68,3.96-.69,4.99-.04,2.15,1.35,2.96,6.4,3.61,10.46.77,4.83,2.95,21.56-1.47,34.2Z"/>
      </g>
    </g>
  </g>
</svg>